<?xml version="1.0" encoding="UTF-8" standalone="no"?>
<!-- <svg
   xmlns:dc="http://purl.org/dc/elements/1.1/"
   xmlns:cc="http://creativecommons.org/ns#"
   xmlns:rdf="http://www.w3.org/1999/02/22-rdf-syntax-ns#"
   xmlns:svg="http://www.w3.org/2000/svg"
   xmlns="http://www.w3.org/2000/svg"
   xml:space="preserve"
   enable-background="new 0 0 512 512"
   viewBox="0 0 512 512"
   height="512px"
   width="512px"
   y="0px"
   x="0px"
   id="NexT"
   version="1.1"><metadata
     id="metadata3390"><rdf:RDF><cc:Work
         rdf:about=""><dc:format>image/svg+xml</dc:format><dc:type
           rdf:resource="http://purl.org/dc/dcmitype/StillImage" /><dc:title></dc:title></cc:Work></rdf:RDF></metadata><defs
     id="defs3388" /><path
     style="fill:#222222;fill-opacity:1"
     id="path3384"
     d="M 256.4,25.8 56.4,141.3 56,371.5 255.6,486.2 455.6,370.7 456,140.5 Z m 92.6,328.8 -18.4,10.7 -18.6,-11 0,0 -112,-142.3 0,142.6 -18.4,10.7 -18.6,-11 0,-197 18.5,-10.6 18.5,10.8 0,0 112,144.5 0,-144.6 18.5,-10.6 18.5,10.8 z" /></svg> -->
<svg height="512px" viewBox="-37 0 512 512" width="512px" xmlns="http://www.w3.org/2000/svg"><path d="m241.351562 159.914062-11.589843-70.113281c-1.167969-56.546875.035156-87.535156.132812-89.800781h-30.023437c-.273438 7.15625-1.28125 40 .054687 97.394531.046875 2.011719.125 4.019531.230469 6.015625-3.855469 17.574219-17.523438 72.816406-45.375 116.835938l12.671875 8.019531 12.675781 8.019531c13.96875-22.078125 24.578125-46.25 32.386719-67.871094 10.964844 34.894532 25.226563 59.769532 26.171875 61.402344l25.953125-15.039062c-.207031-.363282-13.242187-23.183594-23.289063-54.863282zm0 0" fill="#a17852"/><path d="m249.851562 415.832031c-17.039062 36.84375-44.894531 66.160157-78.449218 82.539063-18.589844 9.070312-37.726563 13.628906-56.375 13.628906-16.039063 0-31.707032-3.371094-46.355469-10.140625-1.789063-.828125-3.546875-1.699219-5.277344-2.617187-28.886719-15.277344-49.605469-42.714844-58.613281-77.890626-9.257812-36.175781-4.980469-76.382812 12.058594-113.238281 17.039062-36.855469 44.894531-66.171875 78.449218-82.550781 34.585938-16.878906 71.074219-18.117188 102.71875-3.480469.871094.402344 1.730469.8125 2.578126 1.230469 30.308593 14.96875 52.035156 43.015625 61.316406 79.28125 9.265625 36.167969 4.988281 76.382812-12.050782 113.238281zm0 0" fill="#fec000"/><path d="m249.851562 415.832031c-17.039062 36.84375-44.894531 66.160157-78.449218 82.539063-18.589844 9.070312-37.726563 13.628906-56.375 13.628906-16.039063 0-31.707032-3.371094-46.355469-10.140625-1.789063-.828125-3.546875-1.699219-5.277344-2.617187l137.191407-275.929688c30.308593 14.96875 52.035156 43.015625 61.316406 79.28125 9.265625 36.167969 4.988281 76.382812-12.050782 113.238281zm0 0" fill="#ff9a00"/><path d="m188.652344 415.832031c17.035156 36.84375 44.894531 66.160157 78.449218 82.539063 18.589844 9.070312 37.726563 13.628906 56.375 13.628906 16.035157 0 31.707032-3.371094 46.351563-10.140625 1.792969-.828125 3.550781-1.699219 5.28125-2.617187 28.886719-15.277344 49.605469-42.714844 58.613281-77.890626 9.257813-36.175781 4.980469-76.382812-12.058594-113.238281-17.039062-36.855469-44.894531-66.171875-78.449218-82.550781-34.585938-16.878906-71.074219-18.117188-102.71875-3.480469-.871094.402344-1.730469.8125-2.582032 1.230469-30.304687 14.96875-52.03125 43.015625-61.3125 79.28125-9.269531 36.167969-4.988281 76.382812 12.050782 113.238281zm0 0" fill="#ff9a00"/><path d="m188.652344 415.832031c17.035156 36.84375 44.894531 66.160157 78.449218 82.539063 18.589844 9.070312 37.726563 13.628906 56.375 13.628906 16.035157 0 31.707032-3.371094 46.351563-10.140625 1.792969-.828125 3.550781-1.699219 5.28125-2.617187l-137.195313-275.929688c-30.304687 14.96875-52.03125 43.015625-61.3125 79.28125-9.269531 36.167969-4.988281 76.382812 12.050782 113.238281zm0 0" fill="#fec000"/><path d="m415.460938 126.457031-9.335938 7.296875c-2.019531 1.582032-43.90625 33.816406-90.832031 33.816406-7.328125 0-14.765625-.78125-22.214844-2.589843-55.085937-13.410157-84.8125-76.980469-86.050781-79.679688l-4.941406-10.78125 9.339843-7.296875c2.339844-1.832031 57.953125-44.636718 113.046875-31.226562 55.085938 13.40625 84.8125 76.980468 86.050782 79.679687zm0 0" fill="#00ad95"/><path d="m382.144531 394.324219h29.496094v29.5h-29.496094zm0 0" fill="#c06100"/><path d="m364.398438 347.632812h29.496093v29.496094h-29.496093zm0 0" fill="#c06100"/><path d="m415.460938 126.457031-9.335938 7.296875c-2.019531 1.582032-43.90625 33.816406-90.832031 33.816406-7.328125 0-14.765625-.78125-22.214844-2.589843-55.085937-13.410157-84.8125-76.980469-86.050781-79.679688l-4.941406-10.78125zm0 0" fill="#006659"/></svg>